<svg xmlns="http://www.w3.org/2000/svg" width="1200" height="630" viewBox="0 0 1200 630" role="img" aria-labelledby="title desc">
  <title id="title">VRMA Editor</title>
  <desc id="desc">Browser VRM animation editor with timeline and live preview.</desc>
  <defs>
    <linearGradient id="bg" x1="0" y1="0" x2="1" y2="1">
      <stop offset="0" stop-color="#08111d" />
      <stop offset="0.5" stop-color="#10233a" />
      <stop offset="1" stop-color="#27105a" />
    </linearGradient>
    <linearGradient id="accent" x1="0" y1="0" x2="1" y2="1">
      <stop offset="0" stop-color="#47bfff" />
      <stop offset="1" stop-color="#8d5cff" />
    </linearGradient>
    <filter id="glow" x="-50%" y="-50%" width="200%" height="200%">
      <feGaussianBlur stdDeviation="18" result="blur" />
      <feMerge>
        <feMergeNode in="blur" />
        <feMergeNode in="SourceGraphic" />
      </feMerge>
    </filter>
  </defs>
  <rect width="1200" height="630" fill="url(#bg)" />
  <circle cx="1000" cy="95" r="210" fill="#47bfff" opacity="0.16" />
  <circle cx="180" cy="560" r="260" fill="#8d5cff" opacity="0.18" />
  <path d="M86 474h1028" stroke="#ffffff" stroke-opacity="0.11" stroke-width="2" />
  <path d="M86 534h1028" stroke="#ffffff" stroke-opacity="0.11" stroke-width="2" />
  <g opacity="0.18">
    <path d="M140 95h920" stroke="#fff" stroke-width="1" />
    <path d="M140 155h920" stroke="#fff" stroke-width="1" />
    <path d="M140 215h920" stroke="#fff" stroke-width="1" />
    <path d="M140 275h920" stroke="#fff" stroke-width="1" />
    <path d="M140 335h920" stroke="#fff" stroke-width="1" />
    <path d="M140 395h920" stroke="#fff" stroke-width="1" />
  </g>
  <g filter="url(#glow)">
    <rect x="760" y="134" width="288" height="288" rx="42" fill="#091827" stroke="#7ed8ff" stroke-opacity="0.55" stroke-width="3" />
    <circle cx="904" cy="218" r="42" fill="none" stroke="url(#accent)" stroke-width="12" />
    <path d="M904 266v84M850 310h108M864 392l40-42 42 42" fill="none" stroke="url(#accent)" stroke-linecap="round" stroke-linejoin="round" stroke-width="14" />
    <circle cx="904" cy="350" r="9" fill="#fff" />
  </g>
  <g>
    <rect x="94" y="438" width="1012" height="118" rx="24" fill="#07101b" fill-opacity="0.72" stroke="#ffffff" stroke-opacity="0.12" />
    <rect x="154" y="472" width="130" height="18" rx="9" fill="#d8e9ff" fill-opacity="0.36" />
    <rect x="154" y="512" width="200" height="18" rx="9" fill="#d8e9ff" fill-opacity="0.22" />
    <path d="M410 450v88M520 450v88M630 450v88M740 450v88M850 450v88M960 450v88" stroke="#ffffff" stroke-opacity="0.1" />
    <circle cx="520" cy="497" r="14" fill="#47bfff" />
    <circle cx="690" cy="497" r="14" fill="#8d5cff" />
    <circle cx="850" cy="497" r="14" fill="#47bfff" />
    <path d="M520 497h330" stroke="url(#accent)" stroke-width="5" stroke-linecap="round" />
    <path d="M630 450v88" stroke="#ffffff" stroke-width="3" stroke-opacity="0.72" />
  </g>
  <text x="94" y="150" fill="#d9ecff" font-family="Inter, ui-sans-serif, system-ui, -apple-system, BlinkMacSystemFont, 'Segoe UI', sans-serif" font-size="34" font-weight="700" letter-spacing="0.22em">VRMA EDITOR</text>
  <text x="90" y="246" fill="#ffffff" font-family="Inter, ui-sans-serif, system-ui, -apple-system, BlinkMacSystemFont, 'Segoe UI', sans-serif" font-size="74" font-weight="800">Browser VRM</text>
  <text x="90" y="332" fill="#ffffff" font-family="Inter, ui-sans-serif, system-ui, -apple-system, BlinkMacSystemFont, 'Segoe UI', sans-serif" font-size="74" font-weight="800">Animation Editor</text>
  <text x="96" y="392" fill="#c9d8ea" font-family="Inter, ui-sans-serif, system-ui, -apple-system, BlinkMacSystemFont, 'Segoe UI', sans-serif" font-size="28">Timeline editing, direct bone controls, and live VRM preview.</text>
</svg>
